<?xml version="1.0" encoding="UTF-8" standalone="no"?>
<!DOCTYPE svg PUBLIC "-//W3C//DTD SVG 1.1//EN"
 "http://www.w3.org/Graphics/SVG/1.1/DTD/svg11.dtd">
<!-- Generated by graphviz version 2.38.0 (20140413.2041)
 -->
<!-- Title: controllers_diagram Pages: 1 -->
<svg width="426pt" height="536pt"
 viewBox="0.00 0.00 426.06 536.07" xmlns="http://www.w3.org/2000/svg" xmlns:xlink="http://www.w3.org/1999/xlink">
<g id="graph0" class="graph" transform="scale(1 1) rotate(0) translate(214.17 322.5)">
<title>controllers_diagram</title>
<polygon fill="white" stroke="none" points="-214.17,213.567 -214.17,-322.5 211.893,-322.5 211.893,213.567 -214.17,213.567"/>
<!-- _diagram_info -->
<g id="node1" class="node"><title>_diagram_info</title>
<text text-anchor="start" x="-166.688" y="-304.1" font-family="Times,serif" font-size="13.00">Controllers diagram</text>
<text text-anchor="start" x="-166.688" y="-291.1" font-family="Times,serif" font-size="13.00">Date: Oct 07 2014 &#45; 19:12</text>
<text text-anchor="start" x="-166.688" y="-278.1" font-family="Times,serif" font-size="13.00">Migration version: 20140930171016</text>
<text text-anchor="start" x="-166.688" y="-265.1" font-family="Times,serif" font-size="13.00">Generated by RailRoady 1.1.2</text>
<text text-anchor="start" x="-166.688" y="-252.1" font-family="Times,serif" font-size="13.00">http://railroady.prestonlee.com</text>
</g>
<!-- AccountActivationsController -->
<g id="node2" class="node"><title>AccountActivationsController</title>
<path fill="none" stroke="black" d="M-198.17,189.83C-198.17,189.83 -36.6525,189.83 -36.6525,189.83 -30.6525,189.83 -24.6525,183.83 -24.6525,177.83 -24.6525,177.83 -24.6525,111.83 -24.6525,111.83 -24.6525,105.83 -30.6525,99.8299 -36.6525,99.8299 -36.6525,99.8299 -198.17,99.8299 -198.17,99.8299 -204.17,99.8299 -210.17,105.83 -210.17,111.83 -210.17,111.83 -210.17,177.83 -210.17,177.83 -210.17,183.83 -204.17,189.83 -198.17,189.83"/>
<text text-anchor="middle" x="-117.411" y="115.03" font-family="Times,serif" font-size="14.00">AccountActivationsController</text>
<polyline fill="none" stroke="black" points="-210.17,121.83 -24.6525,121.83 "/>
<text text-anchor="start" x="-202.17" y="137.03" font-family="Times,serif" font-size="14.00">edit</text>
<polyline fill="none" stroke="black" points="-210.17,143.83 -24.6525,143.83 "/>
<polyline fill="none" stroke="black" points="-210.17,167.83 -24.6525,167.83 "/>
<text text-anchor="start" x="-202.17" y="183.03" font-family="Times,serif" font-size="14.00">_layout</text>
</g>
<!-- ApplicationController -->
<g id="node3" class="node"><title>ApplicationController</title>
<path fill="none" stroke="black" d="M-37.2855,69.0484C-37.2855,69.0484 78.3561,69.0484 78.3561,69.0484 84.3561,69.0484 90.3561,63.0484 90.3561,57.0484 90.3561,57.0484 90.3561,-10.9516 90.3561,-10.9516 90.3561,-16.9516 84.3561,-22.9516 78.3561,-22.9516 78.3561,-22.9516 -37.2855,-22.9516 -37.2855,-22.9516 -43.2855,-22.9516 -49.2855,-16.9516 -49.2855,-10.9516 -49.2855,-10.9516 -49.2855,57.0484 -49.2855,57.0484 -49.2855,63.0484 -43.2855,69.0484 -37.2855,69.0484"/>
<text text-anchor="middle" x="20.5353" y="-7.75161" font-family="Times,serif" font-size="14.00">ApplicationController</text>
<polyline fill="none" stroke="black" points="-49.2855,-0.951607 90.3561,-0.951607 "/>
<polyline fill="none" stroke="black" points="-49.2855,23.0484 90.3561,23.0484 "/>
<polyline fill="none" stroke="black" points="-49.2855,47.0484 90.3561,47.0484 "/>
<text text-anchor="start" x="-41.2855" y="62.2484" font-family="Times,serif" font-size="14.00">_layout</text>
</g>
<!-- ApplicationController&#45;&gt;AccountActivationsController -->
<g id="edge1" class="edge"><title>ApplicationController&#45;&gt;AccountActivationsController</title>
<path fill="none" stroke="black" d="M-31.6164,69.0888C-42.9084,79.0575 -54.8409,89.5918 -66.1002,99.5317"/>
</g>
<!-- SessionsController -->
<g id="node4" class="node"><title>SessionsController</title>
<path fill="none" stroke="black" d="M98.1138,209.067C98.1138,209.067 195.893,209.067 195.893,209.067 201.893,209.067 207.893,203.067 207.893,197.067 207.893,197.067 207.893,103.067 207.893,103.067 207.893,97.0669 201.893,91.0669 195.893,91.0669 195.893,91.0669 98.1138,91.0669 98.1138,91.0669 92.1138,91.0669 86.1138,97.0669 86.1138,103.067 86.1138,103.067 86.1138,197.067 86.1138,197.067 86.1138,203.067 92.1138,209.067 98.1138,209.067"/>
<text text-anchor="middle" x="147.003" y="106.267" font-family="Times,serif" font-size="14.00">SessionsController</text>
<polyline fill="none" stroke="black" points="86.1138,113.067 207.893,113.067 "/>
<text text-anchor="start" x="94.1138" y="128.267" font-family="Times,serif" font-size="14.00">create</text>
<text text-anchor="start" x="94.1138" y="142.267" font-family="Times,serif" font-size="14.00">destroy</text>
<text text-anchor="start" x="94.1138" y="156.267" font-family="Times,serif" font-size="14.00">new</text>
<polyline fill="none" stroke="black" points="86.1138,163.067 207.893,163.067 "/>
<polyline fill="none" stroke="black" points="86.1138,187.067 207.893,187.067 "/>
<text text-anchor="start" x="94.1138" y="202.267" font-family="Times,serif" font-size="14.00">_layout</text>
</g>
<!-- ApplicationController&#45;&gt;SessionsController -->
<g id="edge2" class="edge"><title>ApplicationController&#45;&gt;SessionsController</title>
<path fill="none" stroke="black" d="M66.5509,69.2643C73.4723,76.2157 80.6915,83.4664 87.841,90.6471"/>
</g>
<!-- StaticPagesController -->
<g id="node5" class="node"><title>StaticPagesController</title>
<path fill="none" stroke="black" d="M-169.93,-40.7417C-169.93,-40.7417 -55.84,-40.7417 -55.84,-40.7417 -49.84,-40.7417 -43.84,-46.7417 -43.84,-52.7417 -43.84,-52.7417 -43.84,-160.742 -43.84,-160.742 -43.84,-166.742 -49.84,-172.742 -55.84,-172.742 -55.84,-172.742 -169.93,-172.742 -169.93,-172.742 -175.93,-172.742 -181.93,-166.742 -181.93,-160.742 -181.93,-160.742 -181.93,-52.7417 -181.93,-52.7417 -181.93,-46.7417 -175.93,-40.7417 -169.93,-40.7417"/>
<text text-anchor="middle" x="-112.885" y="-157.542" font-family="Times,serif" font-size="14.00">StaticPagesController</text>
<polyline fill="none" stroke="black" points="-181.93,-150.742 -43.84,-150.742 "/>
<text text-anchor="start" x="-173.93" y="-135.542" font-family="Times,serif" font-size="14.00">about</text>
<text text-anchor="start" x="-173.93" y="-121.542" font-family="Times,serif" font-size="14.00">contact</text>
<text text-anchor="start" x="-173.93" y="-107.542" font-family="Times,serif" font-size="14.00">help</text>
<text text-anchor="start" x="-173.93" y="-93.5417" font-family="Times,serif" font-size="14.00">home</text>
<polyline fill="none" stroke="black" points="-181.93,-86.7417 -43.84,-86.7417 "/>
<polyline fill="none" stroke="black" points="-181.93,-62.7417 -43.84,-62.7417 "/>
<text text-anchor="start" x="-173.93" y="-47.5417" font-family="Times,serif" font-size="14.00">_layout</text>
</g>
<!-- ApplicationController&#45;&gt;StaticPagesController -->
<g id="edge3" class="edge"><title>ApplicationController&#45;&gt;StaticPagesController</title>
<path fill="none" stroke="black" d="M-26.8793,-23.0762C-32.7215,-28.7594 -38.7798,-34.6528 -44.8526,-40.5604"/>
</g>
<!-- UsersController -->
<g id="node6" class="node"><title>UsersController</title>
<path fill="none" stroke="black" d="M109.278,10.6193C109.278,10.6193 190.705,10.6193 190.705,10.6193 196.705,10.6193 202.705,4.61933 202.705,-1.38067 202.705,-1.38067 202.705,-207.381 202.705,-207.381 202.705,-213.381 196.705,-219.381 190.705,-219.381 190.705,-219.381 109.278,-219.381 109.278,-219.381 103.278,-219.381 97.2775,-213.381 97.2775,-207.381 97.2775,-207.381 97.2775,-1.38067 97.2775,-1.38067 97.2775,4.61933 103.278,10.6193 109.278,10.6193"/>
<text text-anchor="middle" x="149.991" y="-204.181" font-family="Times,serif" font-size="14.00">UsersController</text>
<polyline fill="none" stroke="black" points="97.2775,-197.381 202.705,-197.381 "/>
<text text-anchor="start" x="105.278" y="-182.181" font-family="Times,serif" font-size="14.00">create</text>
<text text-anchor="start" x="105.278" y="-168.181" font-family="Times,serif" font-size="14.00">destroy</text>
<text text-anchor="start" x="105.278" y="-154.181" font-family="Times,serif" font-size="14.00">edit</text>
<text text-anchor="start" x="105.278" y="-140.181" font-family="Times,serif" font-size="14.00">index</text>
<text text-anchor="start" x="105.278" y="-126.181" font-family="Times,serif" font-size="14.00">new</text>
<text text-anchor="start" x="105.278" y="-112.181" font-family="Times,serif" font-size="14.00">show</text>
<text text-anchor="start" x="105.278" y="-98.1807" font-family="Times,serif" font-size="14.00">update</text>
<polyline fill="none" stroke="black" points="97.2775,-91.3807 202.705,-91.3807 "/>
<polyline fill="none" stroke="black" points="97.2775,-67.3807 202.705,-67.3807 "/>
<text text-anchor="start" x="105.278" y="-52.1807" font-family="Times,serif" font-size="14.00">_layout</text>
<text text-anchor="start" x="105.278" y="-38.1807" font-family="Times,serif" font-size="14.00">admin_user</text>
<text text-anchor="start" x="105.278" y="-24.1807" font-family="Times,serif" font-size="14.00">correct_user</text>
<text text-anchor="start" x="105.278" y="-10.1807" font-family="Times,serif" font-size="14.00">logged_in_user</text>
<text text-anchor="start" x="105.278" y="3.81933" font-family="Times,serif" font-size="14.00">user_params</text>
</g>
<!-- ApplicationController&#45;&gt;UsersController -->
<g id="edge4" class="edge"><title>ApplicationController&#45;&gt;UsersController</title>
<path fill="none" stroke="black" d="M67.2719,-22.9564C76.9767,-32.5093 87.2677,-42.6391 97.1733,-52.3896"/>
</g>
</g>
</svg>
