<?xml version="1.0" encoding="UTF-8" standalone="no"?>
<!DOCTYPE svg PUBLIC "-//W3C//DTD SVG 1.1//EN"
 "http://www.w3.org/Graphics/SVG/1.1/DTD/svg11.dtd">
<!-- Generated by graphviz version 2.38.0 (20140413.2041)
 -->
<!-- Title: models_diagram Pages: 1 -->
<svg width="396pt" height="302pt"
 viewBox="0.00 0.00 396.01 302.00" xmlns="http://www.w3.org/2000/svg" xmlns:xlink="http://www.w3.org/1999/xlink">
<g id="graph0" class="graph" transform="scale(1 1) rotate(0) translate(4 298)">
<title>models_diagram</title>
<polygon fill="white" stroke="none" points="-4,4 -4,-298 392.009,-298 392.009,4 -4,4"/>
<!-- _diagram_info -->
<g id="node1" class="node"><title>_diagram_info</title>
<text text-anchor="start" x="8" y="-279.6" font-family="Times,serif" font-size="13.00">Models diagram</text>
<text text-anchor="start" x="8" y="-266.6" font-family="Times,serif" font-size="13.00">Date: Oct 07 2014 &#45; 19:12</text>
<text text-anchor="start" x="8" y="-253.6" font-family="Times,serif" font-size="13.00">Migration version: 20140930171016</text>
<text text-anchor="start" x="8" y="-240.6" font-family="Times,serif" font-size="13.00">Generated by RailRoady 1.1.2</text>
<text text-anchor="start" x="8" y="-227.6" font-family="Times,serif" font-size="13.00">http://railroady.prestonlee.com</text>
</g>
<!-- User -->
<g id="node2" class="node"><title>User</title>
<path fill="none" stroke="black" d="M242.455,-0.5C242.455,-0.5 370.921,-0.5 370.921,-0.5 376.921,-0.5 382.921,-6.5 382.921,-12.5 382.921,-12.5 382.921,-172.5 382.921,-172.5 382.921,-178.5 376.921,-184.5 370.921,-184.5 370.921,-184.5 242.455,-184.5 242.455,-184.5 236.455,-184.5 230.455,-178.5 230.455,-172.5 230.455,-172.5 230.455,-12.5 230.455,-12.5 230.455,-6.5 236.455,-0.5 242.455,-0.5"/>
<text text-anchor="middle" x="306.688" y="-169.3" font-family="Times,serif" font-size="14.00">User</text>
<polyline fill="none" stroke="black" points="230.455,-162.5 382.921,-162.5 "/>
<text text-anchor="start" x="238.455" y="-147.3" font-family="Times,serif" font-size="14.00">id :integer</text>
<text text-anchor="start" x="238.455" y="-133.3" font-family="Times,serif" font-size="14.00">name :string</text>
<text text-anchor="start" x="238.455" y="-119.3" font-family="Times,serif" font-size="14.00">email :string</text>
<text text-anchor="start" x="238.455" y="-105.3" font-family="Times,serif" font-size="14.00">created_at :datetime</text>
<text text-anchor="start" x="238.455" y="-91.3" font-family="Times,serif" font-size="14.00">updated_at :datetime</text>
<text text-anchor="start" x="238.455" y="-77.3" font-family="Times,serif" font-size="14.00">password_digest :string</text>
<text text-anchor="start" x="238.455" y="-63.3" font-family="Times,serif" font-size="14.00">remember_digest :string</text>
<text text-anchor="start" x="238.455" y="-49.3" font-family="Times,serif" font-size="14.00">admin :boolean</text>
<text text-anchor="start" x="238.455" y="-35.3" font-family="Times,serif" font-size="14.00">activation_digest :string</text>
<text text-anchor="start" x="238.455" y="-21.3" font-family="Times,serif" font-size="14.00">activated :boolean</text>
<text text-anchor="start" x="238.455" y="-7.3" font-family="Times,serif" font-size="14.00">activated_at :datetime</text>
</g>
<!-- ActiveRecord::Base -->
<g id="node3" class="node"><title>ActiveRecord::Base</title>
<ellipse fill="none" stroke="black" cx="306.688" cy="-257.5" rx="81.1422" ry="18"/>
<text text-anchor="middle" x="306.688" y="-253.3" font-family="Times,serif" font-size="14.00">ActiveRecord::Base</text>
</g>
<!-- ActiveRecord::Base&#45;&gt;User -->
<g id="edge1" class="edge"><title>ActiveRecord::Base&#45;&gt;User</title>
<path fill="none" stroke="black" d="M306.688,-239.364C306.688,-225.796 306.688,-205.693 306.688,-184.719"/>
</g>
</g>
</svg>
