<?xml version="1.0" encoding="UTF-8" standalone="no"?>
<!DOCTYPE svg PUBLIC "-//W3C//DTD SVG 1.1//EN"
 "http://www.w3.org/Graphics/SVG/1.1/DTD/svg11.dtd">
<!-- Generated by graphviz version 2.38.0 (20140413.2041)
 -->
<!-- Title: SampleApp Pages: 1 -->
<svg width="382pt" height="272pt"
 viewBox="0.00 0.00 381.60 271.55" xmlns="http://www.w3.org/2000/svg" xmlns:xlink="http://www.w3.org/1999/xlink">
<g id="graph0" class="graph" transform="scale(1 1) rotate(0) translate(28.8 242.749)">
<title>SampleApp</title>
<polygon fill="white" stroke="none" points="-28.8,28.8 -28.8,-242.749 352.8,-242.749 352.8,28.8 -28.8,28.8"/>
<text text-anchor="middle" x="162" y="-199.549" font-family="Arial Bold" font-size="13.00">SampleApp domain model</text>
<!-- m_Micropost -->
<g id="node1" class="node"><title>m_Micropost</title>
<path fill="none" stroke="black" d="M192,-100.5C192,-100.5 312,-100.5 312,-100.5 318,-100.5 324,-106.5 324,-112.5 324,-112.5 324,-159.5 324,-159.5 324,-165.5 318,-171.5 312,-171.5 312,-171.5 192,-171.5 192,-171.5 186,-171.5 180,-165.5 180,-159.5 180,-159.5 180,-112.5 180,-112.5 180,-106.5 186,-100.5 192,-100.5"/>
<text text-anchor="start" x="223.722" y="-158.7" font-family="Arial Bold" font-size="11.00">Micropost</text>
<polyline fill="none" stroke="black" points="180,-151.5 324,-151.5 "/>
<text text-anchor="start" x="187" y="-138" font-family="Arial" font-size="10.00">content </text>
<text text-anchor="start" x="222.581" y="-138" font-family="Arial Italic" font-size="10.00" fill="#999999">text ∗</text>
<text text-anchor="start" x="187" y="-124" font-family="Arial" font-size="10.00">picture </text>
<text text-anchor="start" x="219.793" y="-124" font-family="Arial Italic" font-size="10.00" fill="#999999">string</text>
<text text-anchor="start" x="187" y="-111" font-family="Arial" font-size="10.00">user_id </text>
<text text-anchor="start" x="222.576" y="-111" font-family="Arial Italic" font-size="10.00" fill="#999999">integer ∗</text>
</g>
<!-- m_Relationship -->
<g id="node2" class="node"><title>m_Relationship</title>
<path fill="none" stroke="black" d="M192,-12C192,-12 312,-12 312,-12 318,-12 324,-18 324,-24 324,-24 324,-58 324,-58 324,-64 318,-70 312,-70 312,-70 192,-70 192,-70 186,-70 180,-64 180,-58 180,-58 180,-24 180,-24 180,-18 186,-12 192,-12"/>
<text text-anchor="start" x="216.997" y="-57.2" font-family="Arial Bold" font-size="11.00">Relationship</text>
<polyline fill="none" stroke="black" points="180,-50 324,-50 "/>
<text text-anchor="start" x="187" y="-37" font-family="Arial" font-size="10.00">followed_id </text>
<text text-anchor="start" x="239.812" y="-37" font-family="Arial Italic" font-size="10.00" fill="#999999">integer ∗</text>
<text text-anchor="start" x="187" y="-23" font-family="Arial" font-size="10.00">follower_id </text>
<text text-anchor="start" x="237.581" y="-23" font-family="Arial Italic" font-size="10.00" fill="#999999">integer ∗</text>
</g>
<!-- m_User -->
<g id="node3" class="node"><title>m_User</title>
<path fill="none" stroke="black" d="M12,-0.5C12,-0.5 132,-0.5 132,-0.5 138,-0.5 144,-6.5 144,-12.5 144,-12.5 144,-163.5 144,-163.5 144,-169.5 138,-175.5 132,-175.5 132,-175.5 12,-175.5 12,-175.5 6,-175.5 0,-169.5 0,-163.5 0,-163.5 0,-12.5 0,-12.5 0,-6.5 6,-0.5 12,-0.5"/>
<text text-anchor="start" x="57.77" y="-162.7" font-family="Arial Bold" font-size="11.00">User</text>
<polyline fill="none" stroke="black" points="0,-155.5 144,-155.5 "/>
<text text-anchor="start" x="7" y="-142" font-family="Arial" font-size="10.00">activated </text>
<text text-anchor="start" x="49.8027" y="-142" font-family="Arial Italic" font-size="10.00" fill="#999999">boolean</text>
<text text-anchor="start" x="7" y="-129" font-family="Arial" font-size="10.00">activated_at </text>
<text text-anchor="start" x="63.7041" y="-129" font-family="Arial Italic" font-size="10.00" fill="#999999">datetime</text>
<text text-anchor="start" x="7" y="-116" font-family="Arial" font-size="10.00">activation_digest </text>
<text text-anchor="start" x="84.2705" y="-116" font-family="Arial Italic" font-size="10.00" fill="#999999">string</text>
<text text-anchor="start" x="7" y="-103" font-family="Arial" font-size="10.00">admin </text>
<text text-anchor="start" x="37.0146" y="-103" font-family="Arial Italic" font-size="10.00" fill="#999999">boolean</text>
<text text-anchor="start" x="7" y="-90" font-family="Arial" font-size="10.00">email </text>
<text text-anchor="start" x="33.6748" y="-90" font-family="Arial Italic" font-size="10.00" fill="#999999">string ∗</text>
<text text-anchor="start" x="7" y="-76" font-family="Arial" font-size="10.00">microposts_count </text>
<text text-anchor="start" x="88.1475" y="-76" font-family="Arial Italic" font-size="10.00" fill="#999999">integer</text>
<text text-anchor="start" x="7" y="-63" font-family="Arial" font-size="10.00">name </text>
<text text-anchor="start" x="34.793" y="-63" font-family="Arial Italic" font-size="10.00" fill="#999999">string ∗</text>
<text text-anchor="start" x="7" y="-49" font-family="Arial" font-size="10.00">password_digest </text>
<text text-anchor="start" x="84.8223" y="-49" font-family="Arial Italic" font-size="10.00" fill="#999999">string</text>
<text text-anchor="start" x="7" y="-36" font-family="Arial" font-size="10.00">remember_digest </text>
<text text-anchor="start" x="87.5908" y="-36" font-family="Arial Italic" font-size="10.00" fill="#999999">string</text>
<text text-anchor="start" x="7" y="-23" font-family="Arial" font-size="10.00">reset_digest </text>
<text text-anchor="start" x="64.2559" y="-23" font-family="Arial Italic" font-size="10.00" fill="#999999">string</text>
<text text-anchor="start" x="7" y="-10" font-family="Arial" font-size="10.00">reset_sent_at </text>
<text text-anchor="start" x="70.374" y="-10" font-family="Arial Italic" font-size="10.00" fill="#999999">datetime</text>
</g>
<!-- m_User&#45;&gt;m_Micropost -->
<g id="edge1" class="edge"><title>m_User&#45;&gt;m_Micropost</title>
<path fill="none" stroke="black" d="M144.118,-107.178C152.978,-109.567 162.085,-112.023 171.068,-114.445"/>
<polygon fill="black" stroke="black" points="170.486,-117.551 179.995,-116.853 172.126,-111.468 170.486,-117.551"/>
</g>
<!-- m_User&#45;&gt;m_Relationship -->
<g id="edge2" class="edge"><title>m_User&#45;&gt;m_Relationship</title>
<path fill="none" stroke="black" d="M144.118,-69.2217C152.978,-66.8822 162.085,-64.4775 171.068,-62.1057"/>
<polygon fill="black" stroke="black" points="172.098,-65.0918 179.995,-59.7484 170.489,-59.0005 172.098,-65.0918"/>
</g>
</g>
</svg>
