<?xml version="1.0" encoding="UTF-8" standalone="no"?>
<!DOCTYPE svg PUBLIC "-//W3C//DTD SVG 1.1//EN"
 "http://www.w3.org/Graphics/SVG/1.1/DTD/svg11.dtd">
<!-- Generated by graphviz version 2.36.0 (20140111.2315)
 -->
<!-- Title: SampleApp Pages: 1 -->
<svg width="386pt" height="257pt"
 viewBox="0.00 0.00 385.60 256.60" xmlns="http://www.w3.org/2000/svg" xmlns:xlink="http://www.w3.org/1999/xlink">
<g id="graph0" class="graph" transform="scale(1 1) rotate(0) translate(28.8 227.8)">
<title>SampleApp</title>
<polygon fill="white" stroke="none" points="-28.8,28.8 -28.8,-227.8 356.8,-227.8 356.8,28.8 -28.8,28.8"/>
<text text-anchor="middle" x="164" y="-184.6" font-family="Arial Bold" font-size="13.00">SampleApp domain model</text>
<!-- m_Micropost -->
<g id="node1" class="node"><title>m_Micropost</title>
<path fill="none" stroke="black" d="M194.5,-45.5C194.5,-45.5 315.5,-45.5 315.5,-45.5 321.5,-45.5 327.5,-51.5 327.5,-57.5 327.5,-57.5 327.5,-104.5 327.5,-104.5 327.5,-110.5 321.5,-116.5 315.5,-116.5 315.5,-116.5 194.5,-116.5 194.5,-116.5 188.5,-116.5 182.5,-110.5 182.5,-104.5 182.5,-104.5 182.5,-57.5 182.5,-57.5 182.5,-51.5 188.5,-45.5 194.5,-45.5"/>
<text text-anchor="start" x="226.5" y="-102.2" font-family="Arial Bold" font-size="11.00">Micropost</text>
<polyline fill="none" stroke="black" points="182.5,-95.5 327.5,-95.5 "/>
<text text-anchor="start" x="190" y="-82" font-family="Arial" font-size="10.00">content </text>
<text text-anchor="start" x="226" y="-82" font-family="Arial Italic" font-size="10.00" fill="#999999">text ∗</text>
<text text-anchor="start" x="190" y="-68.5" font-family="Arial" font-size="10.00">picture </text>
<text text-anchor="start" x="223" y="-68.5" font-family="Arial Italic" font-size="10.00" fill="#999999">string</text>
<text text-anchor="start" x="190" y="-55.5" font-family="Arial" font-size="10.00">user_id </text>
<text text-anchor="start" x="225" y="-55.5" font-family="Arial Italic" font-size="10.00" fill="#999999">integer ∗</text>
</g>
<!-- m_User -->
<g id="node2" class="node"><title>m_User</title>
<path fill="none" stroke="black" d="M12.5,-0C12.5,-0 133.5,-0 133.5,-0 139.5,-0 145.5,-6 145.5,-12 145.5,-12 145.5,-150 145.5,-150 145.5,-156 139.5,-162 133.5,-162 133.5,-162 12.5,-162 12.5,-162 6.5,-162 0.5,-156 0.5,-150 0.5,-150 0.5,-12 0.5,-12 0.5,-6 6.5,-0 12.5,-0"/>
<text text-anchor="start" x="58.5" y="-147.7" font-family="Arial Bold" font-size="11.00">User</text>
<polyline fill="none" stroke="black" points="0.5,-141 145.5,-141 "/>
<text text-anchor="start" x="8" y="-127" font-family="Arial" font-size="10.00">activated </text>
<text text-anchor="start" x="50" y="-127" font-family="Arial Italic" font-size="10.00" fill="#999999">boolean</text>
<text text-anchor="start" x="8" y="-113.5" font-family="Arial" font-size="10.00">activated_at </text>
<text text-anchor="start" x="63" y="-113.5" font-family="Arial Italic" font-size="10.00" fill="#999999">datetime</text>
<text text-anchor="start" x="8" y="-100.5" font-family="Arial" font-size="10.00">activation_digest </text>
<text text-anchor="start" x="84" y="-100.5" font-family="Arial Italic" font-size="10.00" fill="#999999">string</text>
<text text-anchor="start" x="8" y="-87.5" font-family="Arial" font-size="10.00">admin </text>
<text text-anchor="start" x="38" y="-87.5" font-family="Arial Italic" font-size="10.00" fill="#999999">boolean</text>
<text text-anchor="start" x="8" y="-74.5" font-family="Arial" font-size="10.00">email </text>
<text text-anchor="start" x="35" y="-74.5" font-family="Arial Italic" font-size="10.00" fill="#999999">string ∗</text>
<text text-anchor="start" x="8" y="-61.5" font-family="Arial" font-size="10.00">name </text>
<text text-anchor="start" x="36" y="-61.5" font-family="Arial Italic" font-size="10.00" fill="#999999">string ∗</text>
<text text-anchor="start" x="8" y="-48.5" font-family="Arial" font-size="10.00">password_digest </text>
<text text-anchor="start" x="84" y="-48.5" font-family="Arial Italic" font-size="10.00" fill="#999999">string</text>
<text text-anchor="start" x="8" y="-35.5" font-family="Arial" font-size="10.00">remember_digest </text>
<text text-anchor="start" x="87" y="-35.5" font-family="Arial Italic" font-size="10.00" fill="#999999">string</text>
<text text-anchor="start" x="8" y="-22.5" font-family="Arial" font-size="10.00">reset_digest </text>
<text text-anchor="start" x="65" y="-22.5" font-family="Arial Italic" font-size="10.00" fill="#999999">string</text>
<text text-anchor="start" x="8" y="-9.5" font-family="Arial" font-size="10.00">reset_sent_at </text>
<text text-anchor="start" x="71" y="-9.5" font-family="Arial Italic" font-size="10.00" fill="#999999">datetime</text>
</g>
<!-- m_User&#45;&gt;m_Micropost -->
<g id="edge1" class="edge"><title>m_User&#45;&gt;m_Micropost</title>
<path fill="none" stroke="black" d="M145.658,-81C154.702,-81 164.004,-81 173.178,-81"/>
<polygon fill="black" stroke="black" points="173.295,-84.1501 182.295,-81 173.294,-77.8501 173.295,-84.1501"/>
</g>
</g>
</svg>
