<?xml version="1.0" encoding="UTF-8" standalone="no"?>
<!DOCTYPE svg PUBLIC "-//W3C//DTD SVG 1.1//EN"
 "http://www.w3.org/Graphics/SVG/1.1/DTD/svg11.dtd">
<!-- Generated by graphviz version 2.36.0 (20140111.2315)
 -->
<!-- Title: SampleApp Pages: 1 -->
<svg width="386pt" height="270pt"
 viewBox="0.00 0.00 385.60 269.60" xmlns="http://www.w3.org/2000/svg" xmlns:xlink="http://www.w3.org/1999/xlink">
<g id="graph0" class="graph" transform="scale(1 1) rotate(0) translate(28.8 240.8)">
<title>SampleApp</title>
<polygon fill="white" stroke="none" points="-28.8,28.8 -28.8,-240.8 356.8,-240.8 356.8,28.8 -28.8,28.8"/>
<text text-anchor="middle" x="164" y="-197.6" font-family="Arial Bold" font-size="13.00">SampleApp domain model</text>
<!-- m_Micropost -->
<g id="node1" class="node"><title>m_Micropost</title>
<path fill="none" stroke="black" d="M194.5,-98.5C194.5,-98.5 315.5,-98.5 315.5,-98.5 321.5,-98.5 327.5,-104.5 327.5,-110.5 327.5,-110.5 327.5,-157.5 327.5,-157.5 327.5,-163.5 321.5,-169.5 315.5,-169.5 315.5,-169.5 194.5,-169.5 194.5,-169.5 188.5,-169.5 182.5,-163.5 182.5,-157.5 182.5,-157.5 182.5,-110.5 182.5,-110.5 182.5,-104.5 188.5,-98.5 194.5,-98.5"/>
<text text-anchor="start" x="226.5" y="-155.2" font-family="Arial Bold" font-size="11.00">Micropost</text>
<polyline fill="none" stroke="black" points="182.5,-148.5 327.5,-148.5 "/>
<text text-anchor="start" x="190" y="-135" font-family="Arial" font-size="10.00">content </text>
<text text-anchor="start" x="226" y="-135" font-family="Arial Italic" font-size="10.00" fill="#999999">text ∗</text>
<text text-anchor="start" x="190" y="-121.5" font-family="Arial" font-size="10.00">picture </text>
<text text-anchor="start" x="223" y="-121.5" font-family="Arial Italic" font-size="10.00" fill="#999999">string</text>
<text text-anchor="start" x="190" y="-108.5" font-family="Arial" font-size="10.00">user_id </text>
<text text-anchor="start" x="225" y="-108.5" font-family="Arial Italic" font-size="10.00" fill="#999999">integer ∗</text>
</g>
<!-- m_Relationship -->
<g id="node2" class="node"><title>m_Relationship</title>
<path fill="none" stroke="black" d="M194.5,-11C194.5,-11 315.5,-11 315.5,-11 321.5,-11 327.5,-17 327.5,-23 327.5,-23 327.5,-57 327.5,-57 327.5,-63 321.5,-69 315.5,-69 315.5,-69 194.5,-69 194.5,-69 188.5,-69 182.5,-63 182.5,-57 182.5,-57 182.5,-23 182.5,-23 182.5,-17 188.5,-11 194.5,-11"/>
<text text-anchor="start" x="220" y="-54.7" font-family="Arial Bold" font-size="11.00">Relationship</text>
<polyline fill="none" stroke="black" points="182.5,-48 327.5,-48 "/>
<text text-anchor="start" x="190" y="-34" font-family="Arial" font-size="10.00">followed_id </text>
<text text-anchor="start" x="241" y="-34" font-family="Arial Italic" font-size="10.00" fill="#999999">integer ∗</text>
<text text-anchor="start" x="190" y="-20.5" font-family="Arial" font-size="10.00">follower_id </text>
<text text-anchor="start" x="239" y="-20.5" font-family="Arial Italic" font-size="10.00" fill="#999999">integer ∗</text>
</g>
<!-- m_User -->
<g id="node3" class="node"><title>m_User</title>
<path fill="none" stroke="black" d="M12.5,0.5C12.5,0.5 133.5,0.5 133.5,0.5 139.5,0.5 145.5,-5.5 145.5,-11.5 145.5,-11.5 145.5,-162.5 145.5,-162.5 145.5,-168.5 139.5,-174.5 133.5,-174.5 133.5,-174.5 12.5,-174.5 12.5,-174.5 6.5,-174.5 0.5,-168.5 0.5,-162.5 0.5,-162.5 0.5,-11.5 0.5,-11.5 0.5,-5.5 6.5,0.5 12.5,0.5"/>
<text text-anchor="start" x="58.5" y="-160.2" font-family="Arial Bold" font-size="11.00">User</text>
<polyline fill="none" stroke="black" points="0.5,-153.5 145.5,-153.5 "/>
<text text-anchor="start" x="8" y="-140" font-family="Arial" font-size="10.00">activated </text>
<text text-anchor="start" x="50" y="-140" font-family="Arial Italic" font-size="10.00" fill="#999999">boolean</text>
<text text-anchor="start" x="8" y="-126.5" font-family="Arial" font-size="10.00">activated_at </text>
<text text-anchor="start" x="63" y="-126.5" font-family="Arial Italic" font-size="10.00" fill="#999999">datetime</text>
<text text-anchor="start" x="8" y="-113.5" font-family="Arial" font-size="10.00">activation_digest </text>
<text text-anchor="start" x="84" y="-113.5" font-family="Arial Italic" font-size="10.00" fill="#999999">string</text>
<text text-anchor="start" x="8" y="-100.5" font-family="Arial" font-size="10.00">admin </text>
<text text-anchor="start" x="38" y="-100.5" font-family="Arial Italic" font-size="10.00" fill="#999999">boolean</text>
<text text-anchor="start" x="8" y="-87.5" font-family="Arial" font-size="10.00">email </text>
<text text-anchor="start" x="35" y="-87.5" font-family="Arial Italic" font-size="10.00" fill="#999999">string ∗</text>
<text text-anchor="start" x="8" y="-74.5" font-family="Arial" font-size="10.00">microposts_count </text>
<text text-anchor="start" x="89" y="-74.5" font-family="Arial Italic" font-size="10.00" fill="#999999">integer</text>
<text text-anchor="start" x="8" y="-61.5" font-family="Arial" font-size="10.00">name </text>
<text text-anchor="start" x="36" y="-61.5" font-family="Arial Italic" font-size="10.00" fill="#999999">string ∗</text>
<text text-anchor="start" x="8" y="-48.5" font-family="Arial" font-size="10.00">password_digest </text>
<text text-anchor="start" x="84" y="-48.5" font-family="Arial Italic" font-size="10.00" fill="#999999">string</text>
<text text-anchor="start" x="8" y="-35.5" font-family="Arial" font-size="10.00">remember_digest </text>
<text text-anchor="start" x="87" y="-35.5" font-family="Arial Italic" font-size="10.00" fill="#999999">string</text>
<text text-anchor="start" x="8" y="-22.5" font-family="Arial" font-size="10.00">reset_digest </text>
<text text-anchor="start" x="65" y="-22.5" font-family="Arial Italic" font-size="10.00" fill="#999999">string</text>
<text text-anchor="start" x="8" y="-9.5" font-family="Arial" font-size="10.00">reset_sent_at </text>
<text text-anchor="start" x="71" y="-9.5" font-family="Arial Italic" font-size="10.00" fill="#999999">datetime</text>
</g>
<!-- m_User&#45;&gt;m_Micropost -->
<g id="edge1" class="edge"><title>m_User&#45;&gt;m_Micropost</title>
<path fill="none" stroke="black" d="M145.658,-105.711C154.796,-108.097 164.198,-110.552 173.465,-112.971"/>
<polygon fill="black" stroke="black" points="172.791,-116.051 182.295,-115.277 174.382,-109.955 172.791,-116.051"/>
</g>
<!-- m_User&#45;&gt;m_Relationship -->
<g id="edge2" class="edge"><title>m_User&#45;&gt;m_Relationship</title>
<path fill="none" stroke="black" d="M145.658,-68.2893C154.796,-65.9032 164.198,-63.4483 173.465,-61.0287"/>
<polygon fill="black" stroke="black" points="174.382,-64.0448 182.295,-58.7231 172.791,-57.9491 174.382,-64.0448"/>
</g>
</g>
</svg>
